{
  "source": "C:\\Users\\Peter\\Desktop\\stuff\\MIUN\\quantitative_research\\video_compression\\videos\\BVI-HD\\BVI-HD_CDVL_videos\\ORIG\\Boxing_1920x1080_30fps.mp4",
  "output": "C:\\Users\\Peter\\Desktop\\stuff\\MIUN\\quantitative_research\\video_compression\\compressed_videos\\BVI-HD\\h264\\3\\Boxing_1920x1080_30fps_h264.mp4",
  "codec": "h264",
  "ok": "Input #0, mov,mp4,m4a,3gp,3g2,mj2, from 'C:\\Users\\Peter\\Desktop\\stuff\\MIUN\\quantitative_research\\video_compression\\videos\\BVI-HD\\BVI-HD_CDVL_videos\\ORIG\\Boxing_1920x1080_30fps.mp4':\n  Metadata:\n    major_brand     : isom\n    minor_version   : 512\n    compatible_brands: isomiso2avc1mp41\n    encoder         : Lavf54.28.101\n  Duration: 00:00:05.00, start: 0.000000, bitrate: 238363 kb/s\n  Stream #0:0[0x1](und): Video: h264 (High 4:4:4 Predictive) (avc1 / 0x31637661), yuv420p(progressive), 1920x1080, 238359 kb/s, 30 fps, 30 tbr, 30 tbn (default)\n    Metadata:\n      handler_name    : VideoHandler\n      vendor_id       : [0][0][0][0]\n[out#0/mp4 @ 000001559312c4c0] Codec AVOption b:a (set bitrate (in bits/s)) has not been used for any stream. The most likely reason is either wrong type (e.g. a video option with no video streams) or that it is a private option of some decoder which was not actually used for any stream.\nStream mapping:\n  Stream #0:0 -> #0:0 (h264 (native) -> h264 (libx264))\nPress [q] to stop, [?] for help\n[libx264 @ 0000015593a1bb80] using cpu capabilities: MMX2 SSE2Fast SSSE3 SSE4.2 AVX FMA3 BMI2 AVX2\n[libx264 @ 0000015593a1bb80] profile High, level 5.0, 4:2:0, 8-bit\n[libx264 @ 0000015593a1bb80] 264 - core 165 r3222 b35605a - H.264/MPEG-4 AVC codec - Copyleft 2003-2025 - http://www.videolan.org/x264.html - options: cabac=1 ref=5 deblock=1:0:0 analyse=0x3:0x113 me=hex subme=8 psy=1 psy_rd=1.00:0.00 mixed_ref=1 me_range=16 chroma_me=1 trellis=2 8x8dct=1 cqm=0 deadzone=21,11 fast_pskip=1 chroma_qp_offset=-2 threads=18 lookahead_threads=3 sliced_threads=0 nr=0 decimate=1 interlaced=0 bluray_compat=0 constrained_intra=0 bframes=3 b_pyramid=2 b_adapt=1 b_bias=0 direct=3 weightb=1 open_gop=0 weightp=2 keyint=250 keyint_min=25 scenecut=40 intra_refresh=0 rc_lookahead=50 rc=cbr mbtree=1 bitrate=3000 ratetol=1.0 qcomp=0.60 qpmin=0 qpmax=69 qpstep=4 vbv_maxrate=3000 vbv_bufsize=3000 nal_hrd=none filler=0 ip_ratio=1.40 aq=1:1.00\nOutput #0, mp4, to 'C:\\Users\\Peter\\Desktop\\stuff\\MIUN\\quantitative_research\\video_compression\\compressed_videos\\BVI-HD\\h264\\3\\Boxing_1920x1080_30fps_h264.mp4':\n  Metadata:\n    major_brand     : isom\n    minor_version   : 512\n    compatible_brands: isomiso2avc1mp41\n    encoder         : Lavf62.3.100\n  Stream #0:0(und): Video: h264 (avc1 / 0x31637661), yuv420p(tv, progressive), 1920x1080, q=2-31, 3000 kb/s, 30 fps, 15360 tbn (default)\n    Metadata:\n      encoder         : Lavc62.11.100 libx264\n      handler_name    : VideoHandler\n      vendor_id       : [0][0][0][0]\n    Side data:\n      cpb: bitrate max/min/avg: 3000000/0/3000000 buffer size: 3000000 vbv_delay: N/A\nframe=    0 fps=0.0 q=0.0 size=       0KiB time=N/A bitrate=N/A speed=N/A elapsed=0:00:00.51    \nframe=    0 fps=0.0 q=0.0 size=       0KiB time=N/A bitrate=N/A speed=N/A elapsed=0:00:01.07    \nframe=    4 fps=2.5 q=39.0 size=       0KiB time=-00:00:00.03 bitrate=N/A speed=N/A elapsed=0:00:01.59    \nframe=   25 fps= 11 q=34.0 size=       0KiB time=00:00:00.63 bitrate=   0.6kbits/s speed=0.291x elapsed=0:00:02.17    \nframe=   43 fps= 15 q=34.0 size=     256KiB time=00:00:01.33 bitrate=1573.2kbits/s speed=0.468x elapsed=0:00:02.84    \nframe=   67 fps= 19 q=34.0 size=     512KiB time=00:00:02.16 bitrate=1936.0kbits/s speed=0.626x elapsed=0:00:03.45    \nframe=   91 fps= 23 q=34.0 size=     768KiB time=00:00:02.96 bitrate=2120.8kbits/s speed=0.741x elapsed=0:00:04.00    \nframe=  119 fps= 26 q=34.0 size=    1024KiB time=00:00:03.90 bitrate=2151.0kbits/s speed=0.863x elapsed=0:00:04.51    \nframe=  143 fps= 28 q=-1.0 size=    1536KiB time=00:00:04.56 bitrate=2755.5kbits/s speed=0.903x elapsed=0:00:05.05    \n[mp4 @ 0000015593c24a00] Starting second pass: moving the moov atom to the beginning of the file\n[out#0/mp4 @ 000001559312c4c0] video:1637KiB audio:0KiB subtitle:0KiB other streams:0KiB global headers:0KiB muxing overhead: 0.156198%\nframe=  150 fps= 28 q=-1.0 Lsize=    1640KiB time=00:00:04.93 bitrate=2723.2kbits/s speed=0.932x elapsed=0:00:05.29    \n[libx264 @ 0000015593a1bb80] frame I:1     Avg QP:32.31  size: 34673\n[libx264 @ 0000015593a1bb80] frame P:40    Avg QP:32.64  size: 17460\n[libx264 @ 0000015593a1bb80] frame B:109   Avg QP:35.14  size:  8650\n[libx264 @ 0000015593a1bb80] consecutive B-frames:  0.7%  2.7% 14.0% 82.7%\n[libx264 @ 0000015593a1bb80] mb I  I16..4: 46.6% 50.3%  3.1%\n[libx264 @ 0000015593a1bb80] mb P  I16..4: 10.3% 13.6%  0.7%  P16..4: 29.6%  3.1%  2.1%  0.0%  0.0%    skip:40.6%\n[libx264 @ 0000015593a1bb80] mb B  I16..4:  2.4%  4.9%  0.2%  B16..8: 27.7%  2.1%  0.2%  direct: 1.1%  skip:61.4%  L0:44.4% L1:54.0% BI: 1.6%\n[libx264 @ 0000015593a1bb80] 8x8 transform intra:59.3% inter:90.0%\n[libx264 @ 0000015593a1bb80] direct mvs  spatial:91.7% temporal:8.3%\n[libx264 @ 0000015593a1bb80] coded y,uvDC,uvAC intra: 28.9% 36.3% 4.8% inter: 4.7% 5.4% 0.0%\n[libx264 @ 0000015593a1bb80] i16 v,h,dc,p: 25% 20%  6% 50%\n[libx264 @ 0000015593a1bb80] i8 v,h,dc,ddl,ddr,vr,hd,vl,hu: 15%  9% 13%  9% 12% 12% 11% 10%  8%\n[libx264 @ 0000015593a1bb80] i4 v,h,dc,ddl,ddr,vr,hd,vl,hu: 17% 11% 14%  8% 15% 12% 11%  7%  7%\n[libx264 @ 0000015593a1bb80] i8c dc,h,v,p: 56% 21% 15%  8%\n[libx264 @ 0000015593a1bb80] Weighted P-Frames: Y:7.5% UV:7.5%\n[libx264 @ 0000015593a1bb80] ref P L0: 48.5% 14.1% 20.5%  7.9%  8.4%  0.7%\n[libx264 @ 0000015593a1bb80] ref B L0: 80.1% 12.6%  5.6%  1.8%\n[libx264 @ 0000015593a1bb80] ref B L1: 94.6%  5.4%\n[libx264 @ 0000015593a1bb80] kb/s:2681.53\n",
  "seconds": 5.677150011062622,
  "probe_out": {}
}